<?xml version="1.0" encoding="utf-8"?>
<!-- Generator: Adobe Illustrator 16.0.0, SVG Export Plug-In . SVG Version: 6.00 Build 0)  -->
<!DOCTYPE svg PUBLIC "-//W3C//DTD SVG 1.1//EN" "http://www.w3.org/Graphics/SVG/1.1/DTD/svg11.dtd">
<svg version="1.1" id="Layer_1" xmlns="http://www.w3.org/2000/svg" xmlns:xlink="http://www.w3.org/1999/xlink" x="0px" y="0px"
	 width="292px" height="122px" viewBox="0 0 292 122" enable-background="new 0 0 292 122" xml:space="preserve">
<g>
	<g>
		<g enable-background="new    ">
			<g>
				<defs>
					<rect id="SVGID_1_" width="292" height="122"/>
				</defs>
				<clipPath id="SVGID_2_">
					<use xlink:href="#SVGID_1_"  overflow="visible"/>
				</clipPath>
				<g clip-path="url(#SVGID_2_)">
					<defs>
						<rect id="SVGID_3_" x="127.63" y="46.915" width="6.914" height="22.945"/>
					</defs>
					<clipPath id="SVGID_4_">
						<use xlink:href="#SVGID_3_"  overflow="visible"/>
					</clipPath>
					<g clip-path="url(#SVGID_4_)">
						<defs>
							<rect id="SVGID_5_" width="292" height="122"/>
						</defs>
						<clipPath id="SVGID_6_">
							<use xlink:href="#SVGID_5_"  overflow="visible"/>
						</clipPath>
						<rect x="122.63" y="41.915" clip-path="url(#SVGID_6_)" fill="#9C6221" width="16.914" height="32.945"/>
					</g>
				</g>
				<g clip-path="url(#SVGID_2_)">
					<defs>
						<rect id="SVGID_7_" x="215.971" y="25.974" width="6.914" height="39.781"/>
					</defs>
					<clipPath id="SVGID_8_">
						<use xlink:href="#SVGID_7_"  overflow="visible"/>
					</clipPath>
					<g clip-path="url(#SVGID_8_)">
						<defs>
							<rect id="SVGID_9_" width="292" height="122"/>
						</defs>
						<clipPath id="SVGID_10_">
							<use xlink:href="#SVGID_9_"  overflow="visible"/>
						</clipPath>
						<rect x="210.971" y="20.974" clip-path="url(#SVGID_10_)" fill="#9C6221" width="16.914" height="49.781"/>
					</g>
				</g>
				<g clip-path="url(#SVGID_2_)">
					<defs>
						<rect id="SVGID_11_" x="250.539" y="31.209" width="6.914" height="37.559"/>
					</defs>
					<clipPath id="SVGID_12_">
						<use xlink:href="#SVGID_11_"  overflow="visible"/>
					</clipPath>
					<g clip-path="url(#SVGID_12_)">
						<defs>
							<rect id="SVGID_13_" width="292" height="122"/>
						</defs>
						<clipPath id="SVGID_14_">
							<use xlink:href="#SVGID_13_"  overflow="visible"/>
						</clipPath>
						<rect x="245.539" y="26.209" clip-path="url(#SVGID_14_)" fill="#9C6221" width="16.914" height="47.559"/>
					</g>
				</g>
				<g clip-path="url(#SVGID_2_)">
					<defs>
						<path id="SVGID_15_" d="M134.544,46.915v7.473c-1.045,0.783-2.22,1.221-3.457,1.221s-2.412-0.438-3.457-1.221v-7.473H134.544z
							"/>
					</defs>
					<clipPath id="SVGID_16_">
						<use xlink:href="#SVGID_15_"  overflow="visible"/>
					</clipPath>
					<g clip-path="url(#SVGID_16_)">
						<defs>
							<rect id="SVGID_17_" width="292" height="122"/>
						</defs>
						<clipPath id="SVGID_18_">
							<use xlink:href="#SVGID_17_"  overflow="visible"/>
						</clipPath>
						<rect x="122.63" y="41.915" clip-path="url(#SVGID_18_)" fill="#562F15" width="16.914" height="18.693"/>
					</g>
				</g>
				<g clip-path="url(#SVGID_2_)">
					<defs>
						<path id="SVGID_19_" d="M222.885,25.974v16.686c-1.084,0.58-2.251,0.896-3.457,0.896s-2.373-0.316-3.457-0.896V25.974H222.885
							z"/>
					</defs>
					<clipPath id="SVGID_20_">
						<use xlink:href="#SVGID_19_"  overflow="visible"/>
					</clipPath>
					<g clip-path="url(#SVGID_20_)">
						<defs>
							<rect id="SVGID_21_" width="292" height="122"/>
						</defs>
						<clipPath id="SVGID_22_">
							<use xlink:href="#SVGID_21_"  overflow="visible"/>
						</clipPath>
						<rect x="210.971" y="20.974" clip-path="url(#SVGID_22_)" fill="#562F15" width="16.914" height="27.582"/>
					</g>
				</g>
				<g clip-path="url(#SVGID_2_)">
					<defs>
						<path id="SVGID_23_" d="M257.453,31.209v14.463c-1.084,0.58-2.251,0.896-3.457,0.896s-2.374-0.316-3.457-0.896V31.209H257.453
							z"/>
					</defs>
					<clipPath id="SVGID_24_">
						<use xlink:href="#SVGID_23_"  overflow="visible"/>
					</clipPath>
					<g clip-path="url(#SVGID_24_)">
						<defs>
							<rect id="SVGID_25_" width="292" height="122"/>
						</defs>
						<clipPath id="SVGID_26_">
							<use xlink:href="#SVGID_25_"  overflow="visible"/>
						</clipPath>
						<rect x="245.539" y="26.209" clip-path="url(#SVGID_26_)" fill="#562F15" width="16.914" height="25.359"/>
					</g>
				</g>
				<g clip-path="url(#SVGID_2_)">
					<defs>
						<path id="SVGID_27_" d="M139.184,37.815c0,7.051-3.626,12.769-8.097,12.769s-8.097-5.718-8.097-12.769
							c0-7.043,3.626-12.761,8.097-12.761S139.184,30.772,139.184,37.815z"/>
					</defs>
					<clipPath id="SVGID_28_">
						<use xlink:href="#SVGID_27_"  overflow="visible"/>
					</clipPath>
					<g clip-path="url(#SVGID_28_)">
						<defs>
							<rect id="SVGID_29_" width="292" height="122"/>
						</defs>
						<clipPath id="SVGID_30_">
							<use xlink:href="#SVGID_29_"  overflow="visible"/>
						</clipPath>
						<rect x="117.99" y="20.055" clip-path="url(#SVGID_30_)" fill="#66B76B" width="26.193" height="35.529"/>
					</g>
				</g>
				<g clip-path="url(#SVGID_2_)">
					<defs>
						<ellipse id="SVGID_31_" cx="219.428" cy="21.582" rx="10.754" ry="16.949"/>
					</defs>
					<clipPath id="SVGID_32_">
						<use xlink:href="#SVGID_31_"  overflow="visible"/>
					</clipPath>
					<g clip-path="url(#SVGID_32_)">
						<defs>
							<rect id="SVGID_33_" width="292" height="122"/>
						</defs>
						<clipPath id="SVGID_34_">
							<use xlink:href="#SVGID_33_"  overflow="visible"/>
						</clipPath>
						<rect x="203.674" y="-0.367" clip-path="url(#SVGID_34_)" fill="#66B76B" width="31.508" height="43.898"/>
					</g>
				</g>
				<g clip-path="url(#SVGID_2_)">
					<defs>
						<path id="SVGID_35_" d="M264.75,24.596c0,9.363-4.816,16.948-10.754,16.948s-10.755-7.585-10.755-16.948
							s4.817-16.949,10.755-16.949S264.75,15.232,264.75,24.596z"/>
					</defs>
					<clipPath id="SVGID_36_">
						<use xlink:href="#SVGID_35_"  overflow="visible"/>
					</clipPath>
					<g clip-path="url(#SVGID_36_)">
						<defs>
							<rect id="SVGID_37_" width="292" height="122"/>
						</defs>
						<clipPath id="SVGID_38_">
							<use xlink:href="#SVGID_37_"  overflow="visible"/>
						</clipPath>
						<rect x="238.241" y="2.646" clip-path="url(#SVGID_38_)" fill="#66B76B" width="31.509" height="43.897"/>
					</g>
				</g>
				<g clip-path="url(#SVGID_2_)">
					<defs>
						<path id="SVGID_39_" d="M130.795,50.576c-4.34-0.241-7.805-5.868-7.805-12.761c0-1.86,0.253-3.623,0.707-5.221
							c4.34,0.241,7.805,5.868,7.805,12.754C131.501,47.209,131.248,48.979,130.795,50.576z"/>
					</defs>
					<clipPath id="SVGID_40_">
						<use xlink:href="#SVGID_39_"  overflow="visible"/>
					</clipPath>
					<g clip-path="url(#SVGID_40_)">
						<defs>
							<rect id="SVGID_41_" width="292" height="122"/>
						</defs>
						<clipPath id="SVGID_42_">
							<use xlink:href="#SVGID_41_"  overflow="visible"/>
						</clipPath>
						<rect x="117.99" y="27.595" clip-path="url(#SVGID_42_)" fill="#3E9D47" width="18.511" height="27.981"/>
					</g>
				</g>
				<g clip-path="url(#SVGID_2_)">
					<defs>
						<path id="SVGID_43_" d="M220.741,38.396c-0.431,0.091-0.868,0.136-1.313,0.136c-5.938,0-10.754-7.586-10.754-16.949
							c0-3.428,0.645-6.621,1.759-9.28c0.43-0.091,0.868-0.136,1.313-0.136c5.938,0,10.754,7.586,10.754,16.949
							C222.5,32.543,221.855,35.736,220.741,38.396z"/>
					</defs>
					<clipPath id="SVGID_44_">
						<use xlink:href="#SVGID_43_"  overflow="visible"/>
					</clipPath>
					<g clip-path="url(#SVGID_44_)">
						<defs>
							<rect id="SVGID_45_" width="292" height="122"/>
						</defs>
						<clipPath id="SVGID_46_">
							<use xlink:href="#SVGID_45_"  overflow="visible"/>
						</clipPath>
						<rect x="203.674" y="7.166" clip-path="url(#SVGID_46_)" fill="#3E9D47" width="23.826" height="36.365"/>
					</g>
				</g>
				<g clip-path="url(#SVGID_2_)">
					<defs>
						<path id="SVGID_47_" d="M255.31,41.408c-0.431,0.091-0.868,0.136-1.313,0.136c-5.938,0-10.755-7.585-10.755-16.948
							c0-3.428,0.646-6.622,1.759-9.281c0.431-0.09,0.869-0.135,1.314-0.135c5.938,0,10.754,7.585,10.754,16.948
							C257.068,35.556,256.424,38.75,255.31,41.408z"/>
					</defs>
					<clipPath id="SVGID_48_">
						<use xlink:href="#SVGID_47_"  overflow="visible"/>
					</clipPath>
					<g clip-path="url(#SVGID_48_)">
						<defs>
							<rect id="SVGID_49_" width="292" height="122"/>
						</defs>
						<clipPath id="SVGID_50_">
							<use xlink:href="#SVGID_49_"  overflow="visible"/>
						</clipPath>
						<rect x="238.241" y="10.18" clip-path="url(#SVGID_50_)" fill="#3E9D47" width="23.827" height="36.364"/>
					</g>
				</g>
				<g clip-path="url(#SVGID_2_)">
					<defs>
						<path id="SVGID_51_" d="M297.014,63.947v40.677H120.333l-29.867-1.205c-13.912-9.808-34.752-9.929-52.743-15.314l33.446-8.143
							c0,0,21.771-9.341,59.918-16.173c23.606-4.227,53.474-7.488,88.341-6.983c11.031,0.158,22.569,0.7,34.568,1.702
							C267.754,59.661,282.119,61.438,297.014,63.947z"/>
					</defs>
					<clipPath id="SVGID_52_">
						<use xlink:href="#SVGID_51_"  overflow="visible"/>
					</clipPath>
					<g clip-path="url(#SVGID_52_)">
						<defs>
							<rect id="SVGID_53_" width="292" height="122"/>
						</defs>
						<clipPath id="SVGID_54_">
							<use xlink:href="#SVGID_53_"  overflow="visible"/>
						</clipPath>
						<rect x="32.722" y="51.754" clip-path="url(#SVGID_54_)" fill="#66B76B" width="269.292" height="57.87"/>
					</g>
				</g>
				<g clip-path="url(#SVGID_2_)">
					<defs>
						<rect id="SVGID_55_" x="6.303" y="30.976" width="6.914" height="47.065"/>
					</defs>
					<clipPath id="SVGID_56_">
						<use xlink:href="#SVGID_55_"  overflow="visible"/>
					</clipPath>
					<g clip-path="url(#SVGID_56_)">
						<defs>
							<rect id="SVGID_57_" width="292" height="122"/>
						</defs>
						<clipPath id="SVGID_58_">
							<use xlink:href="#SVGID_57_"  overflow="visible"/>
						</clipPath>
						<rect x="1.303" y="25.976" clip-path="url(#SVGID_58_)" fill="#9C6221" width="16.914" height="57.065"/>
					</g>
				</g>
				<g clip-path="url(#SVGID_2_)">
					<defs>
						<path id="SVGID_59_" d="M13.217,45.702c-1.099,0.475-2.259,0.73-3.457,0.73s-2.358-0.256-3.457-0.73V30.976h6.914V45.702z"/>
					</defs>
					<clipPath id="SVGID_60_">
						<use xlink:href="#SVGID_59_"  overflow="visible"/>
					</clipPath>
					<g clip-path="url(#SVGID_60_)">
						<defs>
							<rect id="SVGID_61_" width="292" height="122"/>
						</defs>
						<clipPath id="SVGID_62_">
							<use xlink:href="#SVGID_61_"  overflow="visible"/>
						</clipPath>
						<rect x="1.303" y="25.976" clip-path="url(#SVGID_62_)" fill="#562F15" width="16.914" height="25.457"/>
					</g>
				</g>
				<g clip-path="url(#SVGID_2_)">
					<defs>
						<path id="SVGID_63_" d="M297.014,104.624H143.216c0,0,72.846-36.526,153.797-27.246V104.624z"/>
					</defs>
					<clipPath id="SVGID_64_">
						<use xlink:href="#SVGID_63_"  overflow="visible"/>
					</clipPath>
					<g clip-path="url(#SVGID_64_)">
						<defs>
							<rect id="SVGID_65_" width="292" height="122"/>
						</defs>
						<clipPath id="SVGID_66_">
							<use xlink:href="#SVGID_65_"  overflow="visible"/>
						</clipPath>
						<rect x="138.216" y="70.868" clip-path="url(#SVGID_66_)" fill="#3E9D47" width="163.797" height="38.756"/>
					</g>
				</g>
				<g clip-path="url(#SVGID_2_)">
					<defs>
						<path id="SVGID_67_" d="M22.858,20.761c0,11.405-5.869,20.647-13.098,20.647c-7.236,0-13.105-9.242-13.105-20.647
							c0-11.404,5.869-20.647,13.105-20.647C16.989,0.113,22.858,9.356,22.858,20.761z"/>
					</defs>
					<clipPath id="SVGID_68_">
						<use xlink:href="#SVGID_67_"  overflow="visible"/>
					</clipPath>
					<g clip-path="url(#SVGID_68_)">
						<defs>
							<rect id="SVGID_69_" width="292" height="122"/>
						</defs>
						<clipPath id="SVGID_70_">
							<use xlink:href="#SVGID_69_"  overflow="visible"/>
						</clipPath>
						<rect x="-8.345" y="-4.887" clip-path="url(#SVGID_70_)" fill="#3E9D47" width="36.203" height="51.295"/>
					</g>
				</g>
				<g clip-path="url(#SVGID_2_)">
					<defs>
						<path id="SVGID_71_" d="M-3.264,18.48c1.632-1.149,3.439-1.795,5.342-1.795c7.229,0,13.097,9.243,13.097,20.647
							c0,0.772-0.029,1.533-0.082,2.283c4.572-3.221,7.764-10.447,7.764-18.855c0-11.404-5.869-20.647-13.098-20.647
							C3.013,0.113-2.543,8.149-3.264,18.48z"/>
					</defs>
					<clipPath id="SVGID_72_">
						<use xlink:href="#SVGID_71_"  overflow="visible"/>
					</clipPath>
					<g clip-path="url(#SVGID_72_)">
						<defs>
							<rect id="SVGID_73_" width="292" height="122"/>
						</defs>
						<clipPath id="SVGID_74_">
							<use xlink:href="#SVGID_73_"  overflow="visible"/>
						</clipPath>
						<rect x="-8.264" y="-4.887" clip-path="url(#SVGID_74_)" fill="#66B76B" width="36.122" height="49.503"/>
					</g>
				</g>
				<g clip-path="url(#SVGID_2_)">
					<defs>
						<path id="SVGID_75_" d="M122.476,104.624l-2.143-1.311c-13.912-9.808-31.45-17.077-49.44-22.463
							C49.368,74.41,27.183,70.658,9.76,68.497c-6.109-0.758-11.633-1.32-16.339-1.736v37.863H122.476z"/>
					</defs>
					<clipPath id="SVGID_76_">
						<use xlink:href="#SVGID_75_"  overflow="visible"/>
					</clipPath>
					<g clip-path="url(#SVGID_76_)">
						<defs>
							<rect id="SVGID_77_" width="292" height="122"/>
						</defs>
						<clipPath id="SVGID_78_">
							<use xlink:href="#SVGID_77_"  overflow="visible"/>
						</clipPath>
						<rect x="-11.579" y="61.761" clip-path="url(#SVGID_78_)" fill="#3E9D47" width="139.055" height="47.863"/>
					</g>
				</g>
				<g clip-path="url(#SVGID_2_)">
					<defs>
						<path id="SVGID_79_" d="M-25,122.528c0-3.337,0.868-6.471,2.397-9.205c0.898-1.612,2.028-3.081,3.341-4.369
							c3.542-3.48,8.442-5.627,13.851-5.627h298.423c7.413,0,13.865,4.037,17.191,9.996c1.529,2.734,2.397,5.868,2.397,9.205H-25z"
							/>
					</defs>
					<clipPath id="SVGID_80_">
						<use xlink:href="#SVGID_79_"  overflow="visible"/>
					</clipPath>
					<g clip-path="url(#SVGID_80_)">
						<defs>
							<rect id="SVGID_81_" width="292" height="122"/>
						</defs>
						<clipPath id="SVGID_82_">
							<use xlink:href="#SVGID_81_"  overflow="visible"/>
						</clipPath>
						<rect x="-30" y="98.327" clip-path="url(#SVGID_82_)" fill="#66B76B" width="347.601" height="29.201"/>
					</g>
				</g>
				<g clip-path="url(#SVGID_2_)">
					<defs>
						<path id="SVGID_83_" d="M312.601,122.528H-25c0-3.337,0.868-6.471,2.397-9.205h332.806
							C311.732,116.058,312.601,119.191,312.601,122.528z"/>
					</defs>
					<clipPath id="SVGID_84_">
						<use xlink:href="#SVGID_83_"  overflow="visible"/>
					</clipPath>
					<g clip-path="url(#SVGID_84_)">
						<defs>
							<rect id="SVGID_85_" width="292" height="122"/>
						</defs>
						<clipPath id="SVGID_86_">
							<use xlink:href="#SVGID_85_"  overflow="visible"/>
						</clipPath>
						<rect x="-30" y="108.323" clip-path="url(#SVGID_86_)" fill="#3E9D47" width="347.601" height="19.205"/>
					</g>
				</g>
			</g>
		</g>
	</g>
</g>
</svg>
